<svg id="Layer_1" data-name="Layer 1" xmlns="http://www.w3.org/2000/svg" xmlns:xlink="http://www.w3.org/1999/xlink" viewBox="0 0 55.25 51.9"><defs><style>.cls-1{fill:url(#linear-gradient);}.cls-2{fill:url(#linear-gradient-2);}.cls-3{fill:url(#linear-gradient-3);}.cls-4{fill:url(#linear-gradient-4);}</style><linearGradient id="linear-gradient" x1="7217.69" y1="7201.39" x2="7180.55" y2="7195.52" gradientUnits="userSpaceOnUse"><stop offset="0" stop-color="#bf0015"/><stop offset="1" stop-color="#ff151b"/></linearGradient><linearGradient id="linear-gradient-2" x1="7196.21" y1="7207.12" x2="7202.65" y2="7195.85" xlink:href="#linear-gradient"/><linearGradient id="linear-gradient-3" x1="7171.75" y1="7179.5" x2="7227" y2="7179.5" xlink:href="#linear-gradient"/><linearGradient id="linear-gradient-4" x1="7221.82" y1="7190.5" x2="7209.96" y2="7218.63" gradientUnits="userSpaceOnUse"><stop offset="0" stop-color="#bf0015"/><stop offset="0.02" stop-color="#c20115"/><stop offset="0.26" stop-color="#dc0a18"/><stop offset="0.5" stop-color="#f0101a"/><stop offset="0.74" stop-color="#fb141b"/><stop offset="1" stop-color="#ff151b"/></linearGradient></defs><title>logo-icon</title><path class="cls-1" d="M7171.79,7201.72c0-.19,0-.37,0-.56-.09-2.32-.43-18.26,8.32-19.26,9.42-1.08,19.44-.69,24.16-9.6,2.84,3,2.35,7.15-1.48,9.89-4.12,3-10.31,3.24-15.32,3.93-2.26.3-8.05.29-9,6.27s-1.92,19.69,2.4,24c2,2,8.91,3,16,3,8,0,16.3-1.17,18.18-1.94,4.52-1.86,5.29-6.12,5.88-10.93s.86-21.18-7.19-25.2c7.66,1.18,11.07,3.84,12.54,11a56.16,56.16,0,0,1,.56,14.16c-.5,6.38-2,12.58-5.17,14.65-5.8,3.83-41.91,5.09-46.55-2.05C7171.76,7213.92,7171.76,7203.54,7171.79,7201.72Z" transform="translate(-7171.76 -7172.3)"/><path class="cls-2" d="M7193.1,7202.11s-.05-7.93,2.28-8.11,8.4,3.5,10.6,5.48,2.29,3.48-.08,5.31-8.07,5.62-10.2,5.43S7193.28,7206.32,7193.1,7202.11Z" transform="translate(-7171.76 -7172.3)"/><path class="cls-3" d="M7187.46,7186.12c5-.69,11.2-1,15.32-3.93,3.83-2.74,4.32-6.86,1.48-9.89-4.72,8.91-14.74,8.52-24.16,9.6a7.88,7.88,0,0,0-1.23.25l4.83,4.55A26.68,26.68,0,0,1,7187.46,7186.12Z" transform="translate(-7171.76 -7172.3)"/><path class="cls-4" d="M7220.65,7221.1c3.14-2.07,4.67-8.27,5.17-14.65a56.16,56.16,0,0,0-.56-14.16c-1.47-7.15-4.88-9.81-12.54-11,8.05,4,7.78,20.4,7.19,25.2-.55,4.48-1.26,8.49-5,10.52l4.84,4.56A5.22,5.22,0,0,0,7220.65,7221.1Z" transform="translate(-7171.76 -7172.3)"/></svg>